# xmcd CD database file
#
# Track frame offsets:
#	150
#	22989
#	39719
#	61105
#	92850
#	122081
#	144750
#	184257
#	211489
#	231812
#
# Disc length: 3382 seconds
#
# Revision: 0
# Processed by: cddbd v1.5.1PL0 Copyright (c) Steve Scherf et al.
# Submitted via: CDex 1.51
#
DISCID=840d340a
DTITLE=Giovanni Tommaso Quintet - Secondo Tempo
DYEAR=2001
DGENRE=Jazz
TTITLE0=Divorzio All'Italiana
TTITLE1=Amarcord
TTITLE2=Oh Benigni
TTITLE3=La Notte di San Lorenzo
TTITLE4=Il Clan dei Siciliani
TTITLE5=La Vita Agra
TTITLE6=Parigi o Cara
TTITLE7=Porcile
TTITLE8=Il Padrino
TTITLE9=Lo Chiameremo Andrea
EXTD=YEAR: 2001
EXTT0=
EXTT1=
EXTT2=
EXTT3=
EXTT4=
EXTT5=
EXTT6=
EXTT7=
EXTT8=
EXTT9=
PLAYORDER=
